#!OML:ASF H:\charlestonDancing\Project 1\Capture day 1\Session 1\femaleDancer.ASF
:FULLY-SPECIFIED
:DEGREES
443
root -0.616938 17.7571 -2.37838 332.499 -82.0467 -328.771
lowerback 4.22504 -0.0251382 -1.62013
upperback -4.09055 -0.336986 -2.16908
thorax -6.63928 -0.170185 -1.31905
lowerneck 5.21866 -4.21613 -0.930465
upperneck -4.64494 -5.66498 0.722984
head -2.30885 -2.82641 0.587914
rclavicle -5.18083e-015 -1.5704e-014
rhumerus -36.5705 0.854699 -81.8142
rradius 21.8682
rwrist 30.7206
rhand -25.2241 -28.4527
rfingers 7.12502
rthumb 1.29509 -58.4285
lclavicle -5.18083e-015 -1.5704e-014
lhumerus -40.9877 16.1751 16.6118
lradius 139.597
lwrist -3.20154
lhand 10.6967 -2.0533
lfingers 7.12502
lthumb 35.7868 24.3153
rfemur -16.2659 0.345857 15.6712
rtibia 38.6408
rfoot -24.6379 -6.6119
rtoes -18.8587
lfemur -8.72728 6.87333 -29.243
ltibia 28.4675
lfoot -4.25279 -25.4851
ltoes 11.8679
444
root -0.668609 17.7598 -2.38849 333.93 -82.4245 -330.597
lowerback 4.11972 -0.0103475 -1.17589
upperback -4.19975 -0.262266 -1.8534
thorax -6.69194 -0.144613 -1.24642
lowerneck 4.39692 -4.25924 -0.958131
upperneck -4.34432 -5.71724 0.727132
head -2.05862 -2.85372 0.565899
rclavicle 1.33434e-014 8.24956e-015
rhumerus -36.5147 1.29891 -81.8544
rradius 21.4683
rwrist 30.2528
rhand -25.0747 -28.5743
rfingers 7.12502
rthumb 1.43946 -58.5492
lclavicle 1.33434e-014 8.24956e-015
lhumerus -41.8862 16.2631 16.9362
lradius 139.326
lwrist -3.09336
lhand 11.0076 -2.5276
lfingers 7.12502
lthumb 36.0814 23.7689
rfemur -15.7094 1.57593 16.2629
rtibia 38.5072
rfoot -24.9487 -6.62786
rtoes -13.6902
lfemur -8.00146 6.48728 -28.677
ltibia 28.2414
lfoot -4.40511 -25.099
ltoes 11.5595
445
root -0.71123 17.7639 -2.39948 336.238 -82.9992 -333.547
lowerback 4.26014 0.00481494 -0.558319
upperback -4.16231 -0.169648 -1.49507
thorax -6.73088 -0.115924 -1.22815
lowerneck 3.26277 -4.27287 -0.899649
upperneck -3.89365 -5.71965 0.79879
head -1.70865 -2.85932 0.537419
rclavicle 1.34226e-014 6.48535e-015
rhumerus -36.2084 1.58868 -81.7944
rradius 21.0793
rwrist 30.3688
rhand -24.8908 -28.4176
rfingers 7.12502
rthumb 1.61706 -58.3913
lclavicle 1.34226e-014 6.48535e-015
lhumerus -42.9139 16.5192 17.0118
lradius 139.152
lwrist -2.83878
lhand 11.2899 -2.8189
lfingers 7.12502
lthumb 36.3487 23.4112
rfemur -14.9054 2.85068 17.1064
rtibia 38.3271
rfoot -23.9351 -7.72286
rtoes -17.231
lfemur -7.14197 5.92022 -27.95
ltibia 28.2309
lfoot -5.13352 -24.3453
ltoes 10.269
446
root -0.75533 17.7723 -2.40579 337.986 -83.5288 -335.965
lowerback 4.32547 -0.0572331 -0.0369788
upperback -4.06934 -0.189137 -1.18917
thorax -6.66992 -0.139507 -1.19916
lowerneck 2.14682 -4.23235 -0.732193
upperneck -3.4753 -5.6471 0.931694
head -1.38067 -2.82865 0.510361
rclavicle -1.87168e-014 -1.01132e-014
rhumerus -35.6963 1.93514 -81.7538
rradius 20.7163
rwrist 30.8709
rhand -24.6966 -28.0721
rfingers 7.12502
rthumb 1.80455 -58.0442
lclavicle -1.87168e-014 -1.01132e-014
lhumerus -43.9228 16.8253 16.9487
lradius 138.995
lwrist -2.56138
lhand 11.4046 -2.8647
lfingers 7.12502
lthumb 36.4573 23.3381
rfemur -13.9685 3.65765 17.7918
rtibia 37.9759
rfoot -23.9643 -7.22904
rtoes -11.8539
lfemur -6.25925 5.336 -27.4236
ltibia 28.2876
lfoot -6.13912 -23.4726
ltoes 8.51375
447
root -0.805615 17.7759 -2.41305 338.066 -83.8818 -336.611
lowerback 4.19426 -0.133434 0.186453
upperback -4.02343 -0.260898 -1.00664
thorax -6.54671 -0.179337 -1.12674
lowerneck 1.34381 -4.24717 -0.378164
upperneck -3.19236 -5.65069 1.08481
head -1.15838 -2.83676 0.472437
rclavicle -1.59028e-015 1.68967e-015
rhumerus -35.2317 2.31765 -81.8092
rradius 20.4932
rwrist 31.1469
rhand -24.3672 -27.9168
rfingers 7.12502
rthumb 2.12272 -57.886
lclavicle -1.59028e-015 1.68967e-015
lhumerus -44.6235 16.8812 17.0497
lradius 138.853
lwrist -2.5684
lhand 11.3741 -2.51985
lfingers 7.12502
lthumb 36.4284 23.6902
rfemur -12.9868 4.09196 18.1449
rtibia 37.4441
rfoot -23.7719 -7.1743
rtoes -11.2526
lfemur -5.42676 4.69589 -27.2526
ltibia 28.282
lfoot -7.00939 -22.4785
ltoes 7.26266
